# xmcd
#
# Track frame offsets: 
#        150
#        16362
#        39762
#        53825
#        71337
#        86337
#        99575
#        132987
#        151812
#        169437
#
# Disc length: 2415 seconds
#
# Revision: 3
# Processed by: cddbd v1.5.2PL0 Copyright (c) Steve Scherf et al.
# Submitted via: ExactAudioCopyFreeDBPlugin 1.0
#
DISCID=74096d0a
DTITLE=Charlie Daniels Band - In America
DYEAR=1992
DGENRE=Southern Rock
TTITLE0=The Devil Went Down To Georga
TTITLE1=Carolina (I Remember You)
TTITLE2=Roll Mississippi
TTITLE3=Still In Saigon
TTITLE4=In America
TTITLE5=Let It Roll
TTITLE6=Rainbow Ride
TTITLE7=Feeling Free
TTITLE8=Running With The Crowd
TTITLE9=Dixie On My Mind
EXTD=Track spelling corrected
EXTT0=
EXTT1=
EXTT2=
EXTT3=
EXTT4=
EXTT5=spelling corrected
EXTT6=
EXTT7=
EXTT8=
EXTT9=
PLAYORDER=
